<svg xmlns="http://www.w3.org/2000/svg" width="200" height="200" viewBox="0 0 200 200"><rect width="100%" height="100%" fill="#00a0e4"/><path fill="#ffffff" d="M48.575 103.465h9.43l-3.61-9.86q-.26-.66-.55-1.56t-.57-1.95q-.27 1.05-.56 1.96-.28.91-.55 1.59zm7.52-18.45 11.65 29.64h-4.27q-.71 0-1.16-.36t-.68-.89l-2.21-6.05h-12.28l-2.22 6.05q-.16.47-.63.86t-1.17.39h-4.31l11.67-29.64zm28.89 8.61h4l-8.35 21.03h-4.59l-8.34-21.03h4.18q.57 0 .95.26.38.27.51.68l4.05 11.23q.33.99.58 1.93.24.94.43 1.89.2-.95.45-1.89t.59-1.93l4.15-11.23q.14-.41.51-.68.37-.26.88-.26m17.79 15.6v-3.55q-2.19.1-3.69.38-1.49.28-2.4.71-.9.43-1.29 1-.39.58-.39 1.25 0 1.33.79 1.91.79.57 2.06.57 1.56 0 2.7-.56t2.22-1.71m-10.7-11.05-.9-1.62q3.63-3.32 8.73-3.32 1.85 0 3.3.6 1.46.61 2.46 1.68 1.01 1.08 1.53 2.58.52 1.49.52 3.28v13.28h-2.29q-.72 0-1.11-.22-.39-.21-.61-.87l-.46-1.51q-.79.71-1.55 1.26-.76.54-1.58.91t-1.75.56q-.94.2-2.06.2-1.34 0-2.46-.36-1.13-.36-1.95-1.08-.82-.71-1.27-1.78t-.45-2.48q0-.8.26-1.59.27-.79.87-1.51.61-.71 1.57-1.35.97-.64 2.37-1.11t3.27-.77q1.86-.29 4.26-.35v-1.23q0-2.12-.9-3.13-.9-1.02-2.6-1.02-1.23 0-2.04.29t-1.43.65q-.61.36-1.11.64-.51.29-1.12.29-.53 0-.9-.28-.37-.27-.6-.64m27.41 16.81q-2.75 0-4.21-1.55-1.47-1.55-1.47-4.27v-11.75h-2.15q-.41 0-.7-.27-.28-.26-.28-.8v-2.01l3.38-.55 1.06-5.74q.11-.41.39-.63.29-.23.74-.23h2.63v6.62h5.61v3.61h-5.61v11.4q0 .98.48 1.53.48.56 1.32.56.47 0 .79-.11.32-.12.55-.24.24-.12.42-.24.19-.11.37-.11.23 0 .37.11.14.12.31.34l1.52 2.46q-1.11.93-2.55 1.4-1.43.47-2.97.47m19.35-5.76v-3.55q-2.19.1-3.69.38-1.49.28-2.4.71-.9.43-1.29 1-.39.58-.39 1.25 0 1.33.79 1.91.79.57 2.06.57 1.56 0 2.7-.56t2.22-1.71m-10.7-11.05-.9-1.62q3.63-3.32 8.73-3.32 1.85 0 3.3.6 1.46.61 2.46 1.68 1.01 1.08 1.53 2.58.52 1.49.52 3.28v13.28h-2.29q-.72 0-1.11-.22-.39-.21-.61-.87l-.46-1.51q-.8.71-1.55 1.26-.76.54-1.58.91t-1.76.56q-.93.2-2.06.2-1.33 0-2.46-.36-1.12-.36-1.94-1.08-.82-.71-1.27-1.78t-.45-2.48q0-.8.26-1.59.27-.79.87-1.51.61-.71 1.57-1.35t2.37-1.11q1.4-.47 3.27-.77 1.86-.29 4.26-.35v-1.23q0-2.12-.9-3.13-.9-1.02-2.6-1.02-1.23 0-2.04.29t-1.43.65q-.61.36-1.11.64-.51.29-1.12.29-.53 0-.9-.28-.37-.27-.6-.64m24.87-3.28.31 2.38q.98-1.89 2.33-2.97 1.36-1.07 3.2-1.07 1.46 0 2.34.63l-.33 3.8q-.1.36-.3.52-.19.15-.52.15-.31 0-.91-.1-.61-.1-1.18-.1-.84 0-1.5.24-.65.25-1.18.71-.52.46-.92 1.12-.4.65-.75 1.49v12.96h-5.06v-21.03h2.97q.78 0 1.09.27.31.28.41 1"/></svg>