<svg xmlns="http://www.w3.org/2000/svg" width="400" height="300" viewBox="0 0 400 300"><rect width="100%" height="100%" fill="#ff00ff"/><path fill="#ffffff" d="M90.95 145.275h6.03q2.22 0 3.87-.56 1.65-.55 2.74-1.58 1.1-1.04 1.64-2.52.54-1.49.54-3.32 0-1.74-.54-3.15t-1.62-2.4-2.73-1.52q-1.65-.52-3.9-.52h-6.03zm-8.07-21.81h14.1q4.35 0 7.53 1.02t5.25 2.85 3.07 4.38 1 5.58q0 3.15-1.04 5.78-1.05 2.62-3.15 4.51t-5.27 2.94q-3.16 1.05-7.39 1.05h-6.03v15.27h-8.07zm42.51 14.46.45 3.48q1.44-2.76 3.42-4.33 1.98-1.58 4.68-1.58 2.13 0 3.42.93l-.48 5.55q-.15.54-.44.76-.28.23-.76.23-.45 0-1.34-.15-.88-.15-1.73-.15-1.22 0-2.18.36t-1.73 1.03q-.76.68-1.35 1.64-.58.96-1.09 2.19v18.96h-7.41v-30.78h4.35q1.14 0 1.59.4.45.41.6 1.46m29.46-2.34q3.42 0 6.22 1.11 2.81 1.11 4.8 3.15t3.08 4.98q1.08 2.94 1.08 6.57 0 3.66-1.08 6.6-1.09 2.94-3.08 5.01t-4.8 3.18q-2.8 1.11-6.22 1.11-3.45 0-6.27-1.11t-4.82-3.18q-1.99-2.07-3.09-5.01-1.09-2.94-1.09-6.6 0-3.63 1.09-6.57 1.1-2.94 3.09-4.98 2-2.04 4.82-3.15t6.27-1.11m0 26.01q3.84 0 5.68-2.58 1.85-2.58 1.85-7.56t-1.85-7.59q-1.84-2.61-5.68-2.61-3.91 0-5.78 2.63-1.88 2.62-1.88 7.57t1.88 7.55q1.87 2.59 5.78 2.59m21.09-25.53h7.44v31.83q0 2.01-.53 3.78-.52 1.77-1.68 3.1-1.15 1.34-3.03 2.11-1.87.76-4.57.76-1.05 0-1.96-.14-.89-.13-1.85-.43l.27-3.99q.08-.6.48-.77.39-.16 1.5-.16 1.1 0 1.87-.23.77-.22 1.22-.71.44-.5.64-1.31t.2-2.01zm8.46-8.97q0 .96-.39 1.8t-1.04 1.47q-.64.63-1.53 1-.88.38-1.87.38-.96 0-1.8-.38-.84-.37-1.48-1-.62-.63-1-1.47-.37-.84-.37-1.8 0-.99.37-1.86.38-.87 1-1.5.64-.63 1.48-1 .84-.38 1.8-.38.99 0 1.87.38.89.37 1.53 1 .65.63 1.04 1.5t.39 1.86m12.39 20.82h13.98q0-1.44-.41-2.71-.4-1.28-1.22-2.24-.8-.96-2.05-1.51-1.24-.56-2.89-.56-3.21 0-5.06 1.83-1.84 1.83-2.35 5.19m18.9 4.47h-19.05q.18 2.37.84 4.09.66 1.73 1.74 2.86 1.08 1.12 2.56 1.68 1.49.55 3.29.55t3.1-.42q1.31-.42 2.28-.93.98-.51 1.71-.93t1.43-.42q.93 0 1.37.69l2.14 2.7q-1.23 1.44-2.76 2.42-1.54.97-3.2 1.56-1.66.58-3.39.82-1.72.24-3.34.24-3.21 0-5.97-1.06-2.76-1.07-4.8-3.15-2.04-2.09-3.21-5.16-1.17-3.08-1.17-7.13 0-3.15 1.02-5.92 1.02-2.78 2.92-4.83 1.91-2.06 4.65-3.26 2.75-1.2 6.2-1.2 2.91 0 5.37.93 2.45.93 4.22 2.72 1.78 1.78 2.78 4.38 1.01 2.59 1.01 5.92 0 1.68-.36 2.27-.36.58-1.38.58m31.28-12.51-1.95 2.7q-.33.42-.64.66t-.91.24q-.57 0-1.11-.34-.54-.35-1.29-.78-.75-.44-1.79-.78-1.03-.35-2.56-.35-1.95 0-3.43.71-1.46.7-2.44 2.02-.97 1.32-1.45 3.19-.48 1.88-.48 4.25 0 2.46.52 4.38.53 1.92 1.52 3.23.98 1.3 2.4 1.97 1.41.68 3.18.68 1.76 0 2.86-.44 1.1-.43 1.85-.95.75-.53 1.3-.96.56-.44 1.25-.44.89 0 1.35.69l2.12 2.7q-1.22 1.44-2.66 2.42-1.45.97-2.99 1.56-1.54.58-3.18.82t-3.25.24q-2.86 0-5.37-1.06-2.52-1.07-4.41-3.11t-2.99-4.99q-1.09-2.96-1.09-6.74 0-3.39.97-6.28.98-2.9 2.87-5.01 1.89-2.12 4.68-3.32t6.42-1.2q3.45 0 6.04 1.11 2.6 1.11 4.66 3.18m15.19 27.45q-4.02 0-6.17-2.26-2.14-2.27-2.14-6.26v-17.19h-3.15q-.6 0-1.02-.39t-.42-1.17v-2.94l4.95-.81 1.56-8.4q.15-.6.57-.93t1.08-.33h3.84v9.69h8.21v5.28h-8.21v16.68q0 1.44.7 2.25.71.81 1.94.81.68 0 1.15-.16.47-.17.81-.35.35-.18.61-.34.27-.17.55-.17.33 0 .53.17.22.16.46.49l2.21 3.6q-1.61 1.35-3.71 2.04t-4.35.69m30.11-31.08-3.9-.69q.45-3.12 1.75-5.48 1.28-2.35 3.22-3.93 1.93-1.57 4.44-2.36 2.5-.8 5.38-.8 3 0 5.42.86 2.41.85 4.13 2.37 1.7 1.51 2.62 3.55.91 2.04.91 4.41 0 2.07-.46 3.65-.47 1.57-1.34 2.74t-2.16 1.98-2.91 1.35q3.9 1.23 5.82 3.75 1.93 2.52 1.93 6.33 0 3.24-1.21 5.73-1.2 2.49-3.23 4.18-2.05 1.7-4.73 2.57-2.69.87-5.69.87-3.27 0-5.7-.75t-4.23-2.22q-1.79-1.47-3.06-3.6-1.26-2.13-2.15-4.92l3.26-1.35q1.3-.54 2.42-.28 1.13.25 1.63 1.21.54 1.05 1.19 2.07.64 1.02 1.54 1.82.9.79 2.12 1.29 1.21.49 2.9.49 1.88 0 3.29-.62 1.41-.61 2.36-1.6.94-.99 1.41-2.21.47-1.21.47-2.44 0-1.56-.34-2.83-.33-1.28-1.38-2.18t-3.01-1.41q-1.97-.51-5.27-.51v-5.28q2.73-.03 4.53-.51t2.87-1.33q1.07-.86 1.48-2.06.42-1.2.42-2.64 0-3.06-1.71-4.65t-4.56-1.59q-1.31 0-2.43.38-1.1.37-1.99 1.04-.89.68-1.49 1.58t-.9 1.98q-.5 1.38-1.33 1.83t-2.33.21"/></svg>